<svg width="279" height="70" viewBox="0 0 279 70" fill="none" xmlns="http://www.w3.org/2000/svg">
  <!-- FundOps in White -->
  <path d="M3.8147e-06 34.56V0.959995H21.888V6.192H6.48V15.168H18.816V20.256H6.48V34.56H3.8147e-06ZM35.5519 35.136C33.5999 35.136 31.9199 34.736 30.5119 33.936C29.1359 33.104 28.0799 31.904 27.3439 30.336C26.6079 28.736 26.2399 26.768 26.2399 24.432V10.368H32.7199V23.76C32.7199 25.712 33.1199 27.184 33.9199 28.176C34.7519 29.168 36.0159 29.664 37.7119 29.664C38.7999 29.664 39.7599 29.424 40.5919 28.944C41.4239 28.432 42.0799 27.712 42.5599 26.784C43.0719 25.824 43.3279 24.656 43.3279 23.28V10.368H49.7599V34.56H44.0959L43.5679 30.624C42.8639 32 41.8239 33.104 40.4479 33.936C39.0719 34.736 37.4399 35.136 35.5519 35.136ZM56.106 34.56V10.368H61.818L62.298 14.304C63.034 12.96 64.074 11.872 65.418 11.04C66.794 10.208 68.426 9.792 70.314 9.792C72.33 9.792 74.026 10.208 75.402 11.04C76.778 11.872 77.818 13.088 78.522 14.688C79.258 16.288 79.626 18.256 79.626 20.592V34.56H73.194V21.216C73.194 19.296 72.778 17.824 71.946 16.8C71.146 15.776 69.898 15.264 68.202 15.264C67.114 15.264 66.138 15.52 65.274 16.032C64.442 16.544 63.786 17.28 63.306 18.24C62.826 19.168 62.586 20.304 62.586 21.648V34.56H56.106ZM96.483 35.136C94.275 35.136 92.291 34.592 90.531 33.504C88.803 32.416 87.443 30.912 86.451 28.992C85.459 27.072 84.963 24.912 84.963 22.512C84.963 20.048 85.459 17.872 86.451 15.984C87.475 14.064 88.867 12.56 90.627 11.472C92.419 10.352 94.419 9.792 96.627 9.792C98.355 9.792 99.875 10.112 101.187 10.752C102.499 11.392 103.555 12.304 104.355 13.488V-3.8147e-06H110.835V34.56H105.075L104.355 31.248C103.875 31.92 103.267 32.56 102.531 33.168C101.827 33.776 100.979 34.256 99.987 34.608C98.995 34.96 97.827 35.136 96.483 35.136ZM98.019 29.472C99.299 29.472 100.419 29.184 101.379 28.608C102.371 28 103.139 27.168 103.683 26.112C104.227 25.056 104.499 23.84 104.499 22.464C104.499 21.088 104.227 19.872 103.683 18.816C103.139 17.76 102.371 16.944 101.379 16.368C100.419 15.76 99.299 15.456 98.019 15.456C96.803 15.456 95.699 15.76 94.707 16.368C93.715 16.944 92.931 17.76 92.355 18.816C91.811 19.872 91.539 21.072 91.539 22.416C91.539 23.824 91.811 25.056 92.355 26.112C92.931 27.168 93.699 28 94.659 28.608C95.651 29.184 96.771 29.472 98.019 29.472ZM132.832 35.136C129.568 35.136 126.688 34.4 124.192 32.928C121.696 31.456 119.744 29.424 118.336 26.832C116.928 24.208 116.224 21.184 116.224 17.76C116.224 14.336 116.928 11.328 118.336 8.736C119.744 6.112 121.696 4.064 124.192 2.592C126.688 1.12 129.568 0.383997 132.832 0.383997C136.128 0.383997 139.024 1.12 141.52 2.592C144.016 4.064 145.952 6.112 147.328 8.736C148.736 11.328 149.44 14.336 149.44 17.76C149.44 21.184 148.736 24.208 147.328 26.832C145.952 29.424 144.016 31.456 141.52 32.928C139.024 34.4 136.128 35.136 132.832 35.136ZM132.832 29.328C134.88 29.328 136.64 28.864 138.112 27.936C139.616 26.976 140.784 25.632 141.616 23.904C142.448 22.176 142.864 20.128 142.864 17.76C142.864 15.36 142.448 13.312 141.616 11.616C140.784 9.888 139.616 8.56 138.112 7.632C136.64 6.704 134.88 6.24 132.832 6.24C130.816 6.24 129.056 6.704 127.552 7.632C126.048 8.56 124.88 9.888 124.048 11.616C123.216 13.312 122.8 15.36 122.8 17.76C122.8 20.128 123.216 22.176 124.048 23.904C124.88 25.632 126.048 26.976 127.552 27.936C129.056 28.864 130.816 29.328 132.832 29.328ZM154.825 45.12V10.368H160.585L161.305 13.728C161.817 13.024 162.425 12.384 163.129 11.808C163.833 11.2 164.665 10.72 165.625 10.368C166.617 9.984 167.769 9.792 169.081 9.792C171.353 9.792 173.353 10.352 175.081 11.472C176.809 12.592 178.169 14.112 179.161 16.032C180.185 17.92 180.697 20.08 180.697 22.512C180.697 24.944 180.185 27.12 179.161 29.04C178.137 30.928 176.761 32.416 175.033 33.504C173.305 34.592 171.337 35.136 169.129 35.136C167.337 35.136 165.785 34.816 164.473 34.176C163.193 33.504 162.137 32.592 161.305 31.44V45.12H154.825ZM167.593 29.472C168.873 29.472 169.993 29.184 170.953 28.608C171.945 28.032 172.713 27.216 173.257 26.16C173.801 25.104 174.073 23.888 174.073 22.512C174.073 21.136 173.801 19.92 173.257 18.864C172.713 17.776 171.945 16.944 170.953 16.368C169.993 15.76 168.873 15.456 167.593 15.456C166.345 15.456 165.225 15.76 164.233 16.368C163.273 16.944 162.505 17.76 161.929 18.816C161.385 19.872 161.113 21.088 161.113 22.464C161.113 23.84 161.385 25.072 161.929 26.16C162.505 27.216 163.273 28.032 164.233 28.608C165.225 29.184 166.345 29.472 167.593 29.472ZM196.166 35.136C193.958 35.136 192.038 34.784 190.406 34.08C188.774 33.376 187.494 32.4 186.566 31.152C185.638 29.904 185.11 28.496 184.982 26.928H191.414C191.574 27.536 191.846 28.096 192.23 28.608C192.614 29.088 193.126 29.472 193.766 29.76C194.406 30.048 195.174 30.192 196.07 30.192C196.934 30.192 197.638 30.08 198.182 29.856C198.726 29.6 199.126 29.264 199.382 28.848C199.67 28.432 199.814 28 199.814 27.552C199.814 26.88 199.622 26.368 199.238 26.016C198.854 25.632 198.294 25.328 197.558 25.104C196.822 24.88 195.926 24.656 194.87 24.432C193.718 24.208 192.582 23.936 191.462 23.616C190.374 23.264 189.398 22.832 188.534 22.32C187.67 21.808 186.982 21.152 186.47 20.352C185.958 19.552 185.702 18.56 185.702 17.376C185.702 15.936 186.086 14.656 186.854 13.536C187.622 12.384 188.742 11.472 190.214 10.8C191.686 10.128 193.462 9.792 195.542 9.792C198.454 9.792 200.758 10.448 202.454 11.76C204.15 13.072 205.158 14.88 205.478 17.184H199.382C199.19 16.448 198.758 15.872 198.086 15.456C197.446 15.008 196.582 14.784 195.494 14.784C194.342 14.784 193.462 14.992 192.854 15.408C192.246 15.824 191.942 16.368 191.942 17.04C191.942 17.488 192.134 17.888 192.518 18.24C192.934 18.592 193.51 18.896 194.246 19.152C194.982 19.376 195.878 19.6 196.934 19.824C198.79 20.208 200.422 20.656 201.83 21.168C203.238 21.648 204.342 22.352 205.142 23.28C205.942 24.176 206.342 25.488 206.342 27.216C206.342 28.752 205.926 30.128 205.094 31.344C204.262 32.528 203.078 33.456 201.542 34.128C200.038 34.8 198.246 35.136 196.166 35.136Z" fill="#FFFFFF"/>
  <!-- HQ in White (monochrome) -->
  <path d="M233.137 34.56V0.959995H239.617V34.56H233.137ZM211.969 34.56V0.959995H218.449V34.56H211.969ZM217.537 20.016V14.784H234.241V20.016H217.537ZM269.658 39.84L257.418 20.592H264.858L277.386 39.84H269.658ZM261.738 35.136C258.474 35.136 255.594 34.4 253.098 32.928C250.602 31.456 248.65 29.424 247.242 26.832C245.834 24.208 245.13 21.184 245.13 17.76C245.13 14.336 245.834 11.328 247.242 8.736C248.65 6.112 250.602 4.064 253.098 2.592C255.594 1.12 258.474 0.383997 261.738 0.383997C265.034 0.383997 267.93 1.12 270.426 2.592C272.922 4.064 274.858 6.112 276.234 8.736C277.642 11.328 278.346 14.336 278.346 17.76C278.346 21.184 277.642 24.208 276.234 26.832C274.858 29.424 272.922 31.456 270.426 32.928C267.93 34.4 265.034 35.136 261.738 35.136ZM261.738 29.328C263.786 29.328 265.546 28.864 267.018 27.936C268.522 26.976 269.69 25.632 270.522 23.904C271.354 22.176 271.77 20.128 271.77 17.76C271.77 15.36 271.354 13.312 270.522 11.616C269.69 9.888 268.522 8.56 267.018 7.632C265.546 6.704 263.786 6.24 261.738 6.24C259.722 6.24 257.962 6.704 256.458 7.632C254.954 8.56 253.786 9.888 252.954 11.616C252.122 13.312 251.706 15.36 251.706 17.76C251.706 20.128 252.122 22.176 252.954 23.904C253.786 25.632 254.954 26.976 256.458 27.936C257.962 28.864 259.722 29.328 261.738 29.328Z" fill="#FFFFFF"/>
  <!-- INTERVIEWS text (converted to paths for reliable rendering) -->
  <path d="M3.41 -13.09 L3.41 0.00 L1.44 0.00 L1.44 -13.09 Z M20.86 -13.09 L20.86 0.00 L19.04 0.00 L12.39 -9.60 L12.26 -9.60 L12.26 0.00 L10.29 0.00 L10.29 -13.09 L12.12 -13.09 L18.78 -3.48 L18.90 -3.48 L18.90 -13.09 Z M27.09 -11.39 L27.09 -13.09 L37.22 -13.09 L37.22 -11.39 L33.13 -11.39 L33.13 0.00 L31.16 0.00 L31.16 -11.39 Z M43.45 0.00 L43.45 -13.09 L51.66 -13.09 L51.66 -11.39 L45.42 -11.39 L45.42 -7.40 L51.23 -7.40 L51.23 -5.71 L45.42 -5.71 L45.42 -1.70 L51.73 -1.70 L51.73 0.00 Z M58.30 0.00 L58.30 -13.09 L62.97 -13.09 Q64.49 -13.09 65.50 -12.57 Q66.50 -12.04 67.00 -11.12 Q67.50 -10.20 67.50 -8.99 Q67.50 -7.79 67.00 -6.87 Q66.50 -5.96 65.49 -5.46 Q64.48 -4.95 62.96 -4.95 L59.43 -4.95 L59.43 -6.65 L62.78 -6.65 Q63.74 -6.65 64.35 -6.93 Q64.95 -7.20 65.23 -7.73 Q65.51 -8.25 65.51 -8.99 Q65.51 -9.73 65.23 -10.27 Q64.94 -10.82 64.34 -11.11 Q63.74 -11.40 62.76 -11.40 L60.28 -11.40 L60.28 0.00 Z M64.76 -5.91 L68.00 0.00 L65.75 0.00 L62.58 -5.91 Z M75.05 -13.09 L78.70 -2.43 L78.85 -2.43 L82.49 -13.09 L84.62 -13.09 L79.91 0.00 L77.63 0.00 L72.92 -13.09 Z M92.48 -13.09 L92.48 0.00 L90.51 0.00 L90.51 -13.09 Z M99.36 0.00 L99.36 -13.09 L107.57 -13.09 L107.57 -11.39 L101.34 -11.39 L101.34 -7.40 L107.14 -7.40 L107.14 -5.71 L101.34 -5.71 L101.34 -1.70 L107.64 -1.70 L107.64 0.00 Z M116.78 0.00 L113.15 -13.09 L115.22 -13.09 L117.77 -2.95 L117.90 -2.95 L120.55 -13.09 L122.61 -13.09 L125.26 -2.95 L125.38 -2.95 L127.93 -13.09 L130.01 -13.09 L126.37 0.00 L124.38 0.00 L121.63 -9.81 L121.53 -9.81 L118.77 0.00 Z M142.96 -9.65 Q142.86 -10.56 142.11 -11.06 Q141.37 -11.56 140.25 -11.56 Q139.44 -11.56 138.85 -11.31 Q138.27 -11.06 137.94 -10.62 Q137.62 -10.18 137.62 -9.63 Q137.62 -9.16 137.84 -8.82 Q138.06 -8.48 138.42 -8.26 Q138.78 -8.03 139.20 -7.88 Q139.62 -7.73 140.00 -7.63 L141.28 -7.30 Q141.90 -7.15 142.56 -6.88 Q143.22 -6.62 143.78 -6.19 Q144.35 -5.77 144.69 -5.13 Q145.04 -4.50 145.04 -3.62 Q145.04 -2.51 144.47 -1.64 Q143.90 -0.78 142.81 -0.28 Q141.73 0.22 140.20 0.22 Q138.73 0.22 137.65 -0.25 Q136.58 -0.72 135.97 -1.58 Q135.36 -2.44 135.30 -3.62 L137.28 -3.62 Q137.34 -2.91 137.75 -2.44 Q138.15 -1.97 138.79 -1.74 Q139.42 -1.51 140.18 -1.51 Q141.02 -1.51 141.68 -1.78 Q142.33 -2.05 142.71 -2.52 Q143.09 -3.00 143.09 -3.64 Q143.09 -4.22 142.76 -4.59 Q142.43 -4.96 141.87 -5.20 Q141.31 -5.45 140.61 -5.63 L139.06 -6.05 Q137.49 -6.48 136.57 -7.31 Q135.65 -8.14 135.65 -9.51 Q135.65 -10.64 136.27 -11.49 Q136.88 -12.33 137.93 -12.80 Q138.98 -13.27 140.29 -13.27 Q141.62 -13.27 142.64 -12.80 Q143.66 -12.34 144.25 -11.52 Q144.84 -10.71 144.86 -9.65 Z" fill="#94A3B8" transform="translate(0, 62)"/>
</svg>